<svg width="24" height="24" viewBox="0 0 24 24" fill="currentColor" xmlns="http://www.w3.org/2000/svg">
  <path d="M22.28 9.37a5.93 5.93 0 0 0-.51-4.88 6.01 6.01 0 0 0-6.47-2.91A5.93 5.93 0 0 0 10.83.01a6.01 6.01 0 0 0-5.73 4.15 5.93 5.93 0 0 0-3.97 2.88 6.01 6.01 0 0 0 .74 7.05 5.93 5.93 0 0 0 .51 4.88 6.01 6.01 0 0 0 6.47 2.91 5.93 5.93 0 0 0 4.47 1.57 6.01 6.01 0 0 0 5.73-4.15 5.93 5.93 0 0 0 3.97-2.88 6.01 6.01 0 0 0-.74-7.05zM13.17 22.19a4.5 4.5 0 0 1-2.88-1.04l.14-.08 4.79-2.76a.78.78 0 0 0 .39-.67v-6.74l2.02 1.17a.07.07 0 0 1 .04.06v5.58a4.52 4.52 0 0 1-4.5 4.48zM3.52 18.12a4.49 4.49 0 0 1-.54-3.03l.14.09 4.79 2.76a.78.78 0 0 0 .78 0l5.85-3.38v2.33a.07.07 0 0 1-.03.06l-4.84 2.8a4.52 4.52 0 0 1-6.15-1.63zM2.28 7.88a4.49 4.49 0 0 1 2.35-1.98v5.69a.78.78 0 0 0 .39.67l5.85 3.38-2.02 1.17a.07.07 0 0 1-.07 0l-4.84-2.8A4.52 4.52 0 0 1 2.28 7.88zm17.39 4.05-5.85-3.38 2.02-1.17a.07.07 0 0 1 .07 0l4.84 2.8a4.52 4.52 0 0 1-.7 8.14v-5.72a.78.78 0 0 0-.38-.67zM21.7 8.91l-.14-.09-4.79-2.76a.78.78 0 0 0-.78 0L10.14 9.44V7.11a.07.07 0 0 1 .03-.06l4.84-2.8a4.52 4.52 0 0 1 6.69 4.66zM8.93 12.75l-2.02-1.17a.07.07 0 0 1-.04-.06V5.94a4.52 4.52 0 0 1 7.38-3.48l-.14.08L9.32 5.3a.78.78 0 0 0-.39.67zm1.1-2.37 2.6-1.5 2.6 1.5v3l-2.6 1.5-2.6-1.5z"/>
</svg>
